<?xml version="1.0" standalone="no"?>
<!DOCTYPE svg PUBLIC "-//W3C//DTD SVG 20010904//EN"
 "http://www.w3.org/TR/2001/REC-SVG-20010904/DTD/svg10.dtd">
<svg version="1.0" xmlns="http://www.w3.org/2000/svg"
 width="100.000000pt" height="100.000000pt" viewBox="0 0 100.000000 100.000000"
 preserveAspectRatio="xMidYMid meet">
<metadata>
Created by potrace 1.14, written by Peter Selinger 2001-2017
</metadata>
<g transform="translate(0.000000,100.000000) scale(0.100000,-0.100000)"
fill="#000000" stroke="none">
<path d="M0 500 l0 -500 500 0 500 0 0 500 0 500 -500 0 -500 0 0 -500z m441
335 c0 -5 -17 -14 -37 -20 -21 -5 -39 -15 -41 -20 -4 -12 150 -278 163 -282
13 -3 166 266 160 282 -3 8 -21 17 -40 21 -21 3 -36 12 -36 20 0 11 25 14 125
14 104 0 125 -2 125 -15 0 -9 -9 -15 -23 -15 -26 0 -65 -24 -87 -54 -8 -11
-57 -90 -107 -174 l-93 -153 0 -105 c0 -96 2 -107 23 -128 13 -13 42 -26 65
-30 23 -3 42 -11 42 -16 0 -6 -68 -10 -180 -10 -173 0 -229 10 -137 25 83 14
87 20 87 150 l0 114 -91 152 c-109 180 -138 216 -185 225 -20 4 -34 12 -34 20
0 12 26 14 150 12 87 -2 150 -7 151 -13z"/>
</g>
</svg>
